<?xml version="1.0" standalone="no"?>
<!DOCTYPE svg PUBLIC "-//W3C//DTD SVG 20010904//EN"
 "http://www.w3.org/TR/2001/REC-SVG-20010904/DTD/svg10.dtd">
<svg version="1.0" xmlns="http://www.w3.org/2000/svg"
 width="2000.000000pt" height="2000.000000pt" viewBox="0 0 2000.000000 2000.000000"
 preserveAspectRatio="xMidYMid meet">

<g transform="translate(0.000000,2000.000000) scale(0.100000,-0.100000)"
fill="#000000" stroke="none">
<path d="M6540 13769 c-15 -6 -70 -70 -135 -156 -60 -80 -159 -212 -220 -292
-60 -80 -120 -157 -132 -171 -30 -32 -40 -91 -53 -305 -6 -99 -15 -238 -20
-310 -14 -188 -50 -731 -52 -792 -2 -43 2 -57 22 -78 45 -48 124 -25 135 40 3
16 14 165 25 330 11 165 27 392 35 505 8 113 18 260 21 328 l7 122 3827 0
3827 0 7 -122 c3 -68 13 -215 21 -328 8 -113 24 -342 35 -510 11 -168 23 -316
26 -329 13 -61 91 -81 134 -36 20 21 24 35 22 78 -2 61 -38 604 -52 792 -5 72
-14 211 -20 310 -13 214 -23 273 -53 305 -12 14 -72 91 -132 171 -61 80 -159
212 -220 292 -77 102 -119 149 -139 157 -39 13 -805 14 -841 0 -64 -24 -79
-90 -31 -135 l27 -25 392 0 392 -1 75 -101 c41 -56 95 -128 120 -160 80 -103
140 -184 140 -191 0 -4 -1678 -7 -3730 -7 -2051 0 -3730 3 -3730 7 0 7 60 88
140 191 25 32 79 104 120 160 l75 101 390 1 390 0 28 25 c34 33 35 74 3 112
l-24 28 -414 2 c-245 1 -423 -2 -438 -8z"/>
<path d="M5206 11350 c-211 -54 -386 -216 -465 -432 -48 -131 -55 -176 -55
-358 0 -171 0 -177 30 -255 37 -97 80 -168 96 -159 7 5 8 3 4 -5 -10 -15 23
-53 38 -44 6 3 8 3 4 -1 -17 -20 95 -95 191 -128 54 -19 87 -23 186 -23 132 0
186 11 280 58 58 29 163 123 199 179 l18 28 -68 82 c-38 46 -74 90 -81 98 -6
8 -24 30 -38 47 l-27 33 -38 -49 c-48 -60 -92 -88 -164 -103 -47 -10 -63 -9
-108 5 -53 17 -108 56 -108 77 0 5 -4 10 -10 10 -5 0 -17 26 -26 57 -23 79
-15 235 17 320 27 74 94 155 153 185 48 25 156 30 196 8 52 -27 101 -73 115
-107 l15 -36 48 44 c94 86 203 194 212 211 14 24 -66 127 -142 183 -82 60
-166 86 -293 91 -78 3 -118 -1 -179 -16z"/>
<path d="M7915 11356 c-80 -19 -139 -42 -205 -84 -67 -41 -151 -122 -143 -135
3 -6 1 -7 -5 -3 -15 9 -95 -114 -128 -195 -48 -118 -67 -223 -67 -374 -1 -104
4 -157 17 -205 46 -167 141 -289 277 -357 106 -53 182 -68 307 -60 181 11 314
79 413 214 l40 54 -73 87 c-98 116 -104 123 -125 150 l-18 23 -30 -40 c-40
-53 -125 -108 -181 -117 -186 -28 -298 146 -250 386 21 102 53 168 109 221 55
53 99 71 172 73 83 1 138 -27 189 -99 l40 -54 128 127 c70 70 128 130 128 135
0 18 -74 117 -108 144 -60 47 -111 75 -123 67 -7 -4 -9 -3 -5 4 11 18 -101 44
-204 48 -58 2 -119 -2 -155 -10z"/>
<path d="M10669 11346 c-196 -55 -323 -260 -289 -470 6 -38 18 -85 26 -105 15
-35 15 -36 -12 -56 -85 -63 -145 -119 -140 -132 3 -8 1 -11 -4 -8 -13 8 -55
-61 -77 -126 -12 -36 -18 -84 -18 -144 0 -82 3 -96 34 -158 19 -37 49 -81 68
-97 45 -40 135 -84 202 -100 72 -17 229 -8 302 18 53 19 140 62 165 83 8 7 20
0 35 -21 13 -17 33 -42 44 -56 l21 -26 71 78 c39 44 91 103 116 133 l45 55
-39 46 c-45 53 -46 62 -18 101 32 45 110 216 112 246 2 25 -4 29 -122 75 -68
27 -127 45 -131 41 -4 -4 -20 -41 -35 -80 -14 -40 -30 -75 -34 -77 -8 -5 -94
102 -97 121 -1 6 3 10 9 7 19 -7 131 90 165 143 46 72 62 126 62 212 -1 79
-34 188 -57 184 -6 -1 -10 5 -9 14 1 22 -66 69 -136 93 -66 23 -186 26 -259 6z
m151 -286 c37 -37 18 -105 -41 -145 -45 -32 -61 -26 -79 31 -29 88 60 174 120
114z m-112 -701 c23 -31 42 -58 42 -61 0 -12 -65 -28 -114 -28 -65 0 -110 26
-126 74 -15 47 1 106 41 145 l31 31 42 -53 c23 -28 61 -77 84 -108z"/>
<path d="M6000 11337 c0 -4 -90 -570 -115 -722 -8 -49 -33 -205 -55 -345 -23
-140 -43 -265 -47 -277 l-5 -23 430 0 c237 0 433 3 435 8 10 14 58 326 53 338
-4 11 -57 13 -246 11 -132 -1 -240 1 -240 5 0 11 149 947 156 981 l6 27 -186
0 c-102 0 -186 -2 -186 -3z"/>
<path d="M6967 11318 c-3 -13 -19 -111 -36 -218 -17 -107 -42 -262 -55 -345
-14 -82 -45 -280 -70 -440 -26 -159 -49 -302 -52 -317 l-6 -28 186 0 c102 0
186 2 186 5 0 8 134 846 190 1190 11 66 20 132 20 148 l0 27 -179 0 c-177 0
-179 0 -184 -22z"/>
<path d="M8685 11328 c-2 -7 -20 -116 -40 -243 -20 -126 -52 -327 -71 -445
-89 -556 -104 -653 -104 -661 0 -5 81 -9 180 -9 l179 0 5 33 c3 17 15 90 26
161 l20 129 53 62 52 62 110 -223 110 -223 207 0 207 -1 -78 163 c-43 89 -104
216 -136 282 -32 66 -77 160 -100 209 l-43 90 41 50 c23 28 47 55 53 61 11 10
38 40 154 175 30 35 110 125 177 200 l123 135 -207 3 -207 2 -36 -37 c-20 -21
-96 -108 -169 -193 -73 -85 -148 -173 -167 -195 -19 -22 -34 -43 -34 -47 0 -5
-5 -8 -10 -8 -6 0 -8 14 -5 33 10 73 65 404 70 425 l5 22 -180 0 c-136 0 -182
-3 -185 -12z"/>
<path d="M4025 10485 c-103 -36 -145 -57 -138 -68 3 -6 1 -7 -5 -3 -22 14
-191 -86 -322 -191 -529 -421 -913 -1214 -1025 -2113 -23 -181 -29 -629 -11
-805 55 -532 210 -990 466 -1374 102 -154 251 -339 377 -467 129 -132 317
-297 327 -287 3 4 6 1 6 -5 0 -20 221 -172 376 -257 134 -74 267 -136 281
-131 8 3 12 2 9 -3 -6 -9 154 -73 289 -115 175 -55 421 -104 635 -126 135 -14
494 -14 630 0 339 34 680 121 945 240 118 53 416 126 605 149 412 49 874 -2
1270 -141 l119 -41 11 -56 c28 -140 95 -300 173 -411 48 -67 186 -202 257
-250 83 -57 210 -114 312 -142 113 -30 364 -33 478 -4 87 21 209 69 262 103
21 13 40 23 44 23 17 0 163 121 219 183 94 102 162 222 260 457 47 113 90 214
95 225 5 11 30 70 56 130 155 369 167 408 186 568 25 222 -37 471 -169 671
-56 86 -199 230 -279 282 -252 161 -552 205 -839 122 -142 -40 -319 -143 -421
-243 -50 -48 -144 -159 -144 -169 0 -5 -6 -17 -14 -25 -25 -29 -55 -90 -122
-249 -37 -86 -78 -182 -91 -212 -14 -30 -34 -77 -45 -105 -11 -27 -55 -133
-98 -235 -78 -184 -120 -312 -120 -363 0 -15 -6 -27 -12 -27 -7 0 -53 14 -103
30 -133 45 -350 96 -515 122 -196 30 -638 33 -825 5 -253 -38 -395 -77 -694
-189 -407 -152 -677 -202 -1101 -203 -313 0 -498 22 -765 90 -557 142 -1007
421 -1415 876 -84 93 -221 273 -285 374 -218 344 -353 762 -396 1227 -16 172
-7 633 15 798 68 504 222 973 438 1328 21 35 35 69 31 75 -3 5 -2 8 3 5 5 -3
29 24 54 61 142 211 333 406 510 519 85 54 214 116 281 136 79 23 117 47 134
82 19 40 19 58 0 94 -34 65 -85 74 -200 35z m6348 -4009 c37 -7 69 -15 71 -17
4 -4 -56 -155 -65 -163 -2 -2 -24 -7 -48 -10 -52 -7 -125 -47 -147 -81 -24
-37 -110 -246 -118 -285 -8 -45 16 -129 48 -168 36 -42 131 -85 191 -86 69 -1
142 36 176 89 41 64 112 243 117 296 4 39 -1 59 -23 104 -16 30 -32 55 -37 55
-4 0 -8 7 -8 15 0 21 61 165 70 165 21 0 134 -86 190 -146 36 -38 68 -68 71
-67 3 1 6 -3 6 -10 0 -7 16 -39 36 -72 110 -184 144 -424 88 -635 -16 -60 -54
-164 -66 -178 -1 -1 -71 28 -156 64 -85 36 -206 87 -269 114 -205 85 -611 256
-795 335 -99 42 -204 86 -232 97 -29 11 -53 25 -53 30 0 20 86 178 130 238
116 157 295 273 486 313 86 19 248 20 337 3z m48 -372 c28 -25 24 -52 -27
-168 -36 -82 -51 -106 -70 -110 -31 -8 -93 22 -100 49 -5 22 79 234 99 248 18
12 77 0 98 -19z m-980 -413 c52 -21 132 -55 179 -75 47 -20 91 -34 98 -31 7 3
10 1 7 -4 -3 -5 5 -13 17 -17 13 -3 41 -15 63 -25 57 -25 157 -68 335 -142 85
-36 263 -111 395 -167 132 -56 256 -109 276 -117 l37 -15 -23 -57 c-108 -265
-216 -515 -245 -565 -98 -175 -266 -309 -475 -383 -75 -26 -91 -27 -245 -28
-161 0 -167 1 -258 33 -81 28 -210 99 -247 135 -6 7 -27 26 -47 43 -54 48
-134 157 -173 238 -58 120 -77 211 -78 361 -1 181 3 195 193 645 81 194 89
210 94 210 1 0 45 -17 97 -39z"/>
<path d="M10549 5047 c-8 -7 -32 -54 -53 -105 -21 -51 -51 -123 -67 -159 -35
-78 -36 -97 -7 -117 32 -23 65 -20 82 7 25 39 139 321 138 340 -2 39 -60 60
-93 34z"/>
<path d="M5635 6868 c-31 -28 -31 -32 -45 -328 -6 -124 -15 -301 -20 -395 -6
-93 -13 -240 -16 -327 l-7 -156 28 -26 28 -26 1579 0 c1561 0 1580 0 1608 20
54 39 46 110 -15 136 -30 12 -244 14 -1547 14 l-1513 0 3 52 c34 654 43 819
48 900 l7 97 -31 31 c-36 36 -71 39 -107 8z"/>
<path d="M14258 6860 l-31 -31 7 -97 c3 -53 15 -266 26 -472 11 -206 21 -399
22 -427 l3 -53 -1382 -2 -1382 -3 -28 -21 c-41 -31 -44 -83 -6 -118 l28 -26
1441 0 1441 0 28 26 28 26 -7 156 c-3 87 -10 234 -16 327 -5 94 -14 271 -20
395 -14 296 -14 300 -45 328 -36 31 -71 28 -107 -8z"/>
</g>
</svg>
