<svg xmlns="http://www.w3.org/2000/svg" xmlns:xlink="http://www.w3.org/1999/xlink" xmlns:inkscape="http://www.inkscape.org/namespaces/inkscape" version="1.1" width="841.89" height="595.276" viewBox="0 0 841.89 595.276">
<defs>
<clipPath id="clip_0">
<path transform="matrix(1,0,0,-1,0,595.276)" d="M0 595.276H841.89V0H0Z"/>
</clipPath>
</defs>
<g inkscape:groupmode="layer" inkscape:label="Layer 1">
<path transform="matrix(1,0,0,-1,483.835,363.9291)" d="M0 0V10.029H-25.864V23.803H.411V33.275H-36.924V-22.531H.109V-13.06H-25.864V0Z" fill="#231f20" fill-rule="evenodd"/>
<path transform="matrix(1,0,0,-1,525.6602,340.603)" d="M0 0H.66L.867-.306 10.362-22.896H-9.956ZM14.458-33.401 20.012-45.938H30.975L6.113 9.632H-5.777L-31.028-45.938H-20.775L-14.825-33.401Z" fill="#231f20" fill-rule="evenodd"/>
<path transform="matrix(1,0,0,-1,562.5859,330.6537)" d="M0 0V-55.49H40.257V-46.017H11.219V0Z" fill="#231f20" fill-rule="evenodd"/>
<g clip-path="url(#clip_0)">
<path transform="matrix(1,0,0,-1,258.0864,358.1196)" d="M0 0C3.169-2.571 6.47-4.7 9.812-6.328 19.804-10.915 32.472-11.242 42.862-7.179 44.76-6.394 46.611-5.486 48.354-4.487L48.608-4.341C48.718-4.279 48.828-4.217 48.935-4.149 52.674-1.938 54.871 .035 54.893 .056L55.728 .812V-17.921H47.61V-28.421H74.111V-17.921H65.636V27.055L55.955 26.767C55.804 16.378 50.796 8.538 41.449 4.073 38.921 2.76 36.021 1.789 32.844 1.194 32.388 1.096 31.93 1.003 31.494 .924 31.33 .899 27.856 .396 25.948 .396 24.631 .315 21.942 .528 21.829 .537 15.084 1.321 9.599 4.069 5.508 8.704L5.457 8.763 5.455 8.761C5.396 8.829 5.336 8.897 5.277 8.966L5.261 8.984C-.658 15.895-1.687 24.605-1.854 26.752H-11.163V-17.921H-19.331V-28.421H7.17V-17.921H-.815V.661Z" fill="#231f20" fill-rule="evenodd"/>
<path transform="matrix(1,0,0,-1,475.7559,228.02289)" d="M0 0H60.846V-15.021H18.135V-36.731H55.149V-51.581H18.021V-73.872H61.534V-88.935H0Z" fill="#231f20"/>
<path transform="matrix(1,0,0,-1,265.6802,271.161)" d="M0 0C6.554 0 12.869-.396 19.113 .102 26.507 .691 31.618 6.724 31.994 14.281 32.347 21.357 28.019 27.637 20.623 28.611 13.898 29.497 6.965 28.799 0 28.799ZM-.012-14.251V-45.886H-17.889V43.039C-17.125 43.102-16.379 43.217-15.632 43.218-5.524 43.229 4.584 43.256 14.692 43.212 20.666 43.186 26.489 42.28 32.023 39.891 43.723 34.842 50.171 23.866 48.774 11.35 47.265-2.175 39.454-11.081 26.29-13.203 20.009-14.215 13.522-13.969 7.127-14.236 4.903-14.329 2.671-14.251-.012-14.251" fill="#231f20"/>
<path transform="matrix(1,0,0,-1,564.7236,301.98973)" d="M0 0H38.619V-15.03H-17.794V73.871H0Z" fill="#231f20"/>
<path transform="matrix(1,0,0,-1,347.1548,280.8251)" d="M0 0C-4.954 .021-5.887 1.073-4.937 5.964-3.2 14.908-1.362 23.833 .442 32.764 .669 33.889 .948 35.004 1.456 36.15 2.472 23.61 6.799 12.02 11.585-.003 7.355-.003 3.677-.015 0 0M121.214 129.009C96.726 145.801 62.767 144.853 36.966 127.208 22.511 117.322 12.726 103.586 4.891 88.261-3.797 71.266-9.627 53.131-16.136 35.267-20.585 23.055-24.833 10.758-29.728-1.275-31.428-5.457-34.203-9.609-37.521-12.644-45.327-19.782-53.758-26.235-61.931-32.972-69.044-38.835-71.02-40.294-78.229-46.246-74.898-53.219-69.75-58.344-63.956-62.99-63.05-62.283-62.351-61.761-61.678-61.209-47.342-49.419-37.902-42.314-23.89-30.152-20.263-27.004-16.417-24.512-12.375-22.564L-12.385-22.563C-12.358-22.552-12.331-22.542-12.304-22.531-9.356-21.116-6.304-19.989-3.151-19.122 11.102-14.166 22.947-11.773 32.786-11.16 28.966-2.241 24.764 6.546 21.589 15.689 15.006 34.647 11.974 54.124 15.933 74.152 21.183 100.716 40.006 129.855 78.15 132.417 103.775 134.139 124.318 124.802 137.922 102.276 143.611 92.857 146.741 82.499 148.583 71.532 148.857 71.923 149.12 72.134 149.157 72.38 149.29 73.241 149.394 74.113 149.421 74.984 150.141 98.274 140.043 116.099 121.214 129.009" fill="#231f20"/>
<path transform="matrix(1,0,0,-1,373.8423,344.0961)" d="M0 0V-21.523C0-30.732-3.433-34.32-12.243-34.32-23.022-34.32-24.405-27.481-24.405-21.523V13.204H-35.861V-21.523C-35.861-36.3-27.915-43.792-12.243-43.792 3.261-43.792 11.456-36.092 11.456-21.523V-7.73C7.066-6.036 3.161-3.373 0 0" fill="#231f20" fill-rule="evenodd"/>
<path transform="matrix(1,0,0,-1,466.9463,267.19963)" d="M0 0C-1.062 21.18-13.994 35.768-35.068 37.985-47.199 39.262-59.505 38.881-71.733 39.231-71.995 39.238-72.262 39.066-72.598 38.954V-24.822C-71.903-24.775-71.205-24.744-70.498-24.744-64.653-24.744-59.188-26.364-54.523-29.177V24.583C-50.483 24.583-46.877 24.804-43.306 24.544-30.549 23.617-22.354 17.682-20.123 6.612-18.897 .536-18.71-5.971-19.331-12.155-20.688-25.67-28.649-33.381-41.952-35.156-43.7-35.39-45.475-35.421-47.074-35.462-43.602-39.473-41.141-44.381-40.091-49.795-37.771-49.52-35.129-49.247-32.529-48.718-17.917-45.74-7.439-37.771-2.539-23.32 .028-15.75 .396-7.92 0 0" fill="#231f20"/>
<path transform="matrix(1,0,0,-1,423.96,354.31)" d="M0 0-.436 .105C-7.228 1.738-11.062 2.742-13.493 3.763-17.463 1.744-21.924 .558-26.652 .429-23.075-4.937-15.521-6.775-8.781-8.418-1.417-10.211 4.943-11.76 4.943-17.339 4.943-24.354-3.881-24.899-6.586-24.899-14.071-24.899-18.431-22.022-19.549-16.348L-30.673-14.517C-30.419-23.843-24.116-33.578-7.062-33.578 7.165-33.578 16.003-26.809 16.003-15.911 16.003-3.868 4.377-1.058 0 0" fill="#231f20" fill-rule="evenodd"/>
<path transform="matrix(1,0,0,-1,406.4404,299.0971)" d="M0 0C4.452-3.578 7.461-8.202 9.852-13.267 11.783-17.359 12.427-21.636 11.023-26.027 9.708-30.141 7.215-33.306 3.069-34.881-.271-36.15-3.637-36.028-6.986-34.79-9.899-33.714-11.278-31.475-11.681-28.565-11.882-27.11-11.874-25.619-11.871-24.144-11.865-21.459-11.889-18.771-13.08-16.294-15.135-12.018-18.328-9.036-23.088-8.063-25.995-7.47-28.771-8.119-31.441-9.304-31.734-9.434-32.028-9.563-32.323-9.691-32.332-9.695-32.353-9.673-32.441-9.614-31.878-8.84-31.357-8.034-30.75-7.3-24.844-.159-17.247 3.259-8.002 2.651 4.293 1.843 14.393-7.594 16.252-19.791 18.418-33.999 8.921-47.305-5.261-49.932-19.504-52.57-33.346-43.083-36.065-28.816-36.834-24.784-36.68-20.786-35.589-16.829-35.506-16.528-35.362-16.223-35.173-15.975-33.104-13.251-30.279-11.911-26.934-11.663-25.735-11.574-24.512-11.688-23.31-11.808-19.658-12.171-15.65-16.431-15.25-20.473-15.035-22.637-15.016-24.82-14.896-26.995-14.786-28.983-14.338-30.884-13.425-32.671-12.478-34.528-11.081-35.901-9.198-36.801-3.694-39.429 3.874-38.844 8.659-34.067 12.072-30.66 13.725-26.486 13.697-21.673 13.671-17.294 12.142-13.37 9.87-9.705 7.74-6.269 5.086-3.306 1.731-1.013 1.18-.637 .579-.336 0 0" fill="#ce162d"/>
<path transform="matrix(1,0,0,-1,423.8145,337.4438)" d="M0 0C2.706-1.404 4.39-3.722 5.025-6.945L16.148-8.776C15.956-1.7 12.275 5.607 3.064 8.724 2.478 5.628 1.434 2.695 0 0" fill="#231f20" fill-rule="evenodd"/>
<path transform="matrix(1,0,0,-1,383.875,190.2763)" d="M0 0C-2.091 0-3.787-1.696-3.787-3.787-3.787-5.879-2.091-7.574 0-7.574 2.092-7.574 3.787-5.879 3.787-3.787 3.787-1.696 2.092 0 0 0" fill="#231f20"/>
<path transform="matrix(1,0,0,-1,390.6777,199.11511)" d="M0 0C-2.091 0-3.787-1.696-3.787-3.787-3.787-5.879-2.091-7.574 0-7.574 2.092-7.574 3.787-5.879 3.787-3.787 3.787-1.696 2.092 0 0 0" fill="#231f20"/>
<path transform="matrix(1,0,0,-1,397.4805,207.95401)" d="M0 0C-2.091 0-3.787-1.695-3.787-3.787-3.787-5.878-2.091-7.574 0-7.574 2.092-7.574 3.787-5.878 3.787-3.787 3.787-1.695 2.092 0 0 0" fill="#231f20"/>
<path transform="matrix(1,0,0,-1,393.5342,190.4101)" d="M0 0C.805 0 1.548 .255 2.161 .683 3.092 1.172 3.559 1.945 3.687 2.948 3.748 3.219 3.787 3.498 3.787 3.787 3.787 5.878 2.091 7.574 0 7.574-2.092 7.574-3.787 5.878-3.787 3.787-3.787 1.695-2.092 0 0 0" fill="#231f20"/>
<path transform="matrix(1,0,0,-1,400.3369,191.67472)" d="M0 0C-2.092 0-3.787-1.696-3.787-3.787-3.787-5.879-2.092-7.574 0-7.574 2.092-7.574 3.787-5.879 3.787-3.787 3.787-1.696 2.092 0 0 0" fill="#231f20"/>
<path transform="matrix(1,0,0,-1,407.1396,200.51361)" d="M0 0C-2.092 0-3.787-1.695-3.787-3.787-3.787-5.878-2.092-7.574 0-7.574 2.091-7.574 3.787-5.878 3.787-3.787 3.787-1.695 2.091 0 0 0" fill="#231f20"/>
<path transform="matrix(1,0,0,-1,414.0254,210.76059)" d="M0 0C-2.091 0-3.787-1.696-3.787-3.787-3.787-5.879-2.091-7.574 0-7.574 2.092-7.574 3.787-5.879 3.787-3.787 3.787-1.696 2.092 0 0 0" fill="#231f20"/>
<path transform="matrix(1,0,0,-1,403.1934,182.9696)" d="M0 0C2.091 0 3.787 1.695 3.787 3.787 3.787 5.878 2.091 7.574 0 7.574-2.092 7.574-3.787 5.878-3.787 3.787-3.787 1.695-2.092 0 0 0" fill="#231f20"/>
<path transform="matrix(1,0,0,-1,409.9961,191.8085)" d="M0 0C2.091 0 3.787 1.695 3.787 3.787 3.787 5.879 2.091 7.574 0 7.574-2.092 7.574-3.787 5.879-3.787 3.787-3.787 1.695-2.092 0 0 0" fill="#231f20"/>
<path transform="matrix(1,0,0,-1,416.7988,193.07309)" d="M0 0C-2.092 0-3.787-1.695-3.787-3.787-3.787-5.878-2.092-7.574 0-7.574 2.091-7.574 3.787-5.878 3.787-3.787 3.787-1.695 2.091 0 0 0" fill="#231f20"/>
<path transform="matrix(1,0,0,-1,423.7676,202.79779)" d="M0 0C-2.091 0-3.787-1.696-3.787-3.787-3.787-5.879-2.091-7.574 0-7.574 2.092-7.574 3.787-5.879 3.787-3.787 3.787-1.696 2.092 0 0 0" fill="#231f20"/>
<path transform="matrix(1,0,0,-1,430.5703,211.6366)" d="M0 0C-2.092 0-3.787-1.695-3.787-3.787-3.787-5.879-2.092-7.574 0-7.574 2.092-7.574 3.787-5.879 3.787-3.787 3.787-1.695 2.092 0 0 0" fill="#231f20"/>
<path transform="matrix(1,0,0,-1,412.8525,175.5292)" d="M0 0C2.091 0 3.787 1.695 3.787 3.787 3.787 5.878 2.091 7.574 0 7.574-2.092 7.574-3.787 5.878-3.787 3.787-3.787 1.695-2.092 0 0 0" fill="#231f20"/>
<path transform="matrix(1,0,0,-1,419.6553,184.3681)" d="M0 0C2.091 0 3.787 1.696 3.787 3.787 3.787 5.879 2.091 7.574 0 7.574-2.092 7.574-3.787 5.879-3.787 3.787-3.787 1.696-2.092 0 0 0" fill="#231f20"/>
<path transform="matrix(1,0,0,-1,426.458,185.63269)" d="M0 0C-2.092 0-3.787-1.695-3.787-3.787-3.787-5.878-2.092-7.574 0-7.574 2.092-7.574 3.787-5.878 3.787-3.787 3.787-1.695 2.092 0 0 0" fill="#231f20"/>
<path transform="matrix(1,0,0,-1,433.5928,194.06342)" d="M0 0C-2.092 0-3.787-1.696-3.787-3.787-3.787-5.879-2.092-7.574 0-7.574 2.092-7.574 3.787-5.879 3.787-3.787 3.787-1.696 2.092 0 0 0" fill="#231f20"/>
<path transform="matrix(1,0,0,-1,440.3955,202.90232)" d="M0 0C-2.092 0-3.787-1.696-3.787-3.787-3.787-5.879-2.092-7.574 0-7.574 2.092-7.574 3.787-5.879 3.787-3.787 3.787-1.696 2.092 0 0 0" fill="#231f20"/>
<path transform="matrix(1,0,0,-1,447.1982,211.74109)" d="M0 0C-2.092 0-3.787-1.695-3.787-3.787-3.787-5.878-2.092-7.574 0-7.574 2.092-7.574 3.787-5.878 3.787-3.787 3.787-1.695 2.092 0 0 0" fill="#231f20"/>
<path transform="matrix(1,0,0,-1,422.5117,168.0888)" d="M0 0C2.091 0 3.787 1.695 3.787 3.787 3.787 5.878 2.091 7.574 0 7.574-2.092 7.574-3.788 5.878-3.788 3.787-3.788 1.695-2.092 0 0 0" fill="#231f20"/>
<path transform="matrix(1,0,0,-1,429.3145,176.92761)" d="M0 0C2.091 0 3.787 1.696 3.787 3.787 3.787 5.879 2.091 7.574 0 7.574-2.092 7.574-3.787 5.879-3.787 3.787-3.787 1.696-2.092 0 0 0" fill="#231f20"/>
<path transform="matrix(1,0,0,-1,436.1172,185.76651)" d="M0 0C2.091 0 3.787 1.696 3.787 3.787 3.787 5.879 2.091 7.574 0 7.574-2.092 7.574-3.787 5.879-3.787 3.787-3.787 1.696-2.092 0 0 0" fill="#231f20"/>
<path transform="matrix(1,0,0,-1,440.3955,191.67472)" d="M0 0C0-2.092 1.695-3.787 3.787-3.787 5.879-3.787 7.574-2.092 7.574 0 7.574 2.091 5.879 3.787 3.787 3.787 1.695 3.787 0 2.091 0 0" fill="#231f20"/>
<path transform="matrix(1,0,0,-1,450.9854,196.7265)" d="M0 0C-2.092 0-3.787-1.695-3.787-3.787-3.787-5.878-2.092-7.574 0-7.574 2.092-7.574 3.787-5.878 3.787-3.787 3.787-1.695 2.092 0 0 0" fill="#231f20"/>
<path transform="matrix(1,0,0,-1,457.7881,205.5653)" d="M0 0C-2.092 0-3.787-1.695-3.787-3.787-3.787-5.878-2.092-7.574 0-7.574 2.092-7.574 3.787-5.878 3.787-3.787 3.787-1.695 2.092 0 0 0" fill="#231f20"/>
<path transform="matrix(1,0,0,-1,438.9736,169.48722)" d="M0 0C2.091 0 3.787 1.696 3.787 3.787 3.787 5.879 2.091 7.574 0 7.574-2.092 7.574-3.787 5.879-3.787 3.787-3.787 1.696-2.092 0 0 0" fill="#231f20"/>
<path transform="matrix(1,0,0,-1,445.7764,178.32611)" d="M0 0C2.091 0 3.787 1.696 3.787 3.787 3.787 5.879 2.091 7.574 0 7.574-2.092 7.574-3.787 5.879-3.787 3.787-3.787 1.696-2.092 0 0 0" fill="#231f20"/>
<path transform="matrix(1,0,0,-1,454.3867,188.10642)" d="M0 0C2.092 0 3.787 1.695 3.787 3.787 3.787 5.878 2.092 7.574 0 7.574-2.092 7.574-3.787 5.878-3.787 3.787-3.787 1.695-2.092 0 0 0" fill="#231f20"/>
<path transform="matrix(1,0,0,-1,461.1895,196.94519)" d="M0 0C2.092 0 3.787 1.695 3.787 3.787 3.787 5.878 2.092 7.574 0 7.574-2.092 7.574-3.787 5.878-3.787 3.787-3.787 1.695-2.092 0 0 0" fill="#231f20"/>
<path transform="matrix(1,0,0,-1,469.8848,197.80121)" d="M0 0C-2.092 0-3.787-1.695-3.787-3.787-3.787-5.878-2.092-7.574 0-7.574 2.092-7.574 3.787-5.878 3.787-3.787 3.787-1.695 2.092 0 0 0" fill="#231f20"/>
<path transform="matrix(1,0,0,-1,476.6875,206.64002)" d="M0 0C-2.092 0-3.787-1.695-3.787-3.787-3.787-5.878-2.092-7.574 0-7.574 2.092-7.574 3.787-5.878 3.787-3.787 3.787-1.695 2.092 0 0 0" fill="#231f20"/>
<path transform="matrix(1,0,0,-1,464.9766,213.86069)" d="M0 0C-2.092 0-3.787-1.696-3.787-3.787-3.787-5.879-2.092-7.574 0-7.574 2.092-7.574 3.787-5.879 3.787-3.787 3.787-1.696 2.092 0 0 0" fill="#231f20"/>
</g>
</g>
</svg>
